<svg version="1.1" xmlns="http://www.w3.org/2000/svg" xmlns:xlink="http://www.w3.org/1999/xlink" width="26.21845" height="35.84483" viewBox="0,0,26.21845,35.84483"><defs><linearGradient x1="228.84705" y1="192.1653" x2="242.76831" y2="215.6969" gradientUnits="userSpaceOnUse" id="color-1"><stop offset="0" stop-color="#d1d2d3"/><stop offset="1" stop-color="#19191a"/></linearGradient><linearGradient x1="248.83884" y1="206.53347" x2="222.62141" y2="206.53347" gradientUnits="userSpaceOnUse" id="color-2"><stop offset="0" stop-color="#d1d2d3"/><stop offset="1" stop-color="#9b9ba1"/></linearGradient></defs><g transform="translate(-222.62039,-183.79739)"><g data-paper-data="{&quot;isPaintingLayer&quot;:true}" fill-rule="nonzero" stroke="#a4a5a8" stroke-width="0" stroke-linecap="butt" stroke-linejoin="miter" stroke-miterlimit="10" stroke-dasharray="" stroke-dashoffset="0" style="mix-blend-mode: normal"><path d="M244.53839,191.02326c3.2753,6.24765 6.30514,19.89636 1.10125,22.97498c-1.09167,0.64583 -2.4333,1.25352 -3.90333,1.75767c-5.53767,1.89904 -12.89795,2.32801 -15.58494,-2.21391c-3.4003,-5.74765 -6.8636,-5.86135 2.58806,-21.65534c8.87577,-14.02228 12.69824,-6.77805 15.79896,-0.8634z" data-paper-data="{&quot;index&quot;:null}" fill="url(#color-1)"/><path d="M235.73009,219.64222c-7.23977,0 -13.10875,-5.86898 -13.10875,-13.10875c0,-7.23977 5.86898,-13.10875 13.10875,-13.10875c7.23977,0 13.10875,5.86898 13.10875,13.10875c0,7.23977 -5.86898,13.10875 -13.10875,13.10875z" data-paper-data="{&quot;index&quot;:null}" fill="url(#color-2)"/></g></g></svg>