<svg version="1.1" xmlns="http://www.w3.org/2000/svg" xmlns:xlink="http://www.w3.org/1999/xlink" width="506.01436" height="386" viewBox="0,0,506.01436,386"><g transform="translate(13.00719,13)"><g data-paper-data="{&quot;isPaintingLayer&quot;:true}" fill="none" fill-rule="nonzero" stroke="#000000" stroke-width="25" stroke-linejoin="miter" stroke-miterlimit="10" stroke-dasharray="" stroke-dashoffset="0" style="mix-blend-mode: normal"><path d="M479.74999,360.5l-39,-1" stroke-linecap="round"/><g><path d="M-0.50719,0.43785v214.57458h48.10144M-0.50719,215.01243v143.04972h432.91292M47.59425,0.43785h432.91292v357.6243M143.79712,0.43785v143.04972h-96.20287v-71.52487h48.10144M143.79712,143.48757h48.10144v71.52487h-48.10144v71.52487h-96.20287M95.69568,143.48757v71.52487M191.89855,71.96272h48.10144v71.52487h48.10144v71.52487h96.20287v-143.04972M432.40573,71.96272h-96.20287v71.52487M336.20286,215.01243v71.52487h-96.20287v-71.52487M288.10143,286.53728v71.52487M191.89855,286.53728v71.52487M480.50717,286.53728h-96.20287M480.50717,143.48757h-48.10144v71.52487" stroke-linecap="square"/><path d="M43.74999,0.5l-39,-1" stroke-linecap="round"/></g></g></g></svg>