<svg version="1.1" xmlns="http://www.w3.org/2000/svg" xmlns:xlink="http://www.w3.org/1999/xlink" width="505.65728" height="385.98351" viewBox="0,0,505.65728,385.98351"><g transform="translate(13.64278,12.9771)"><g data-paper-data="{&quot;isPaintingLayer&quot;:true}" fill="none" fill-rule="nonzero" stroke="#000000" stroke-width="25" stroke-linecap="butt" stroke-linejoin="miter" stroke-miterlimit="10" stroke-dasharray="" stroke-dashoffset="0" style="mix-blend-mode: normal"><path d="M484.75836,360.50641h-485.90114v-358.6243"/><path d="M-1.14279,219.56645h49.81829"/><path d="M189.82847,282.44346v74.7876"/><path d="M-6.49469,-0.4771h486.00919v356.26346"/><path d="M286.69738,76.66971v-74.7876"/><path d="M143.70079,150.3999v-148.51779"/><path d="M382.6456,289.01161h96.86891"/><path d="M342.29865,139.79486h78.88291"/><path d="M287.62031,280.99876v74.7876"/><path d="M242.11843,313.36621l-0.20147,-116.08517l236.98525,1.49569"/><path d="M346.45074,322.21651v-125.80062"/><path d="M423.47652,60.13569v136.42032"/><path d="M339.11677,67.36158l88.84386,0.44643"/><path d="M288.98671,192.42903v-60.90606"/><path d="M218.0737,-4.16418v122.26017"/><path d="M157.506,216.25165h84.45879"/><path d="M192.65186,289.40508h-84.45879"/><path d="M43.24032,214.11485v93.35334"/><path d="M78.33778,82.62639h-77.1237"/><path d="M71.98157,74.17384v104.56284"/><path d="M113.74364,188.74846v104.56284"/></g></g></svg>