<svg xmlns="http://www.w3.org/2000/svg" viewBox="0,0,500.65728,380.98351" height="380.98351" width="500.65728" version="1.1">
  <path style="mix-blend-mode: normal;" stroke-dashoffset="0" stroke-dasharray="" stroke-miterlimit="10" stroke-linejoin="miter" stroke-linecap="butt" stroke-width="20" stroke="#000000" fill-rule="nonzero" fill="none" d="M 495.901 370.984 L 10 370.984 L 10 12.359"></path>
  <path style="mix-blend-mode: normal;" stroke-dashoffset="0" stroke-dasharray="" stroke-miterlimit="10" stroke-linejoin="miter" stroke-linecap="butt" stroke-width="20" stroke="#000000" fill-rule="nonzero" fill="none" d="M 4.648 10 L 490.657 10 L 490.657 366.263"></path>
  <path style="mix-blend-mode: normal;" stroke-dashoffset="0" stroke-dasharray="" stroke-miterlimit="10" stroke-linejoin="miter" stroke-linecap="butt" stroke-width="20" stroke="#000000" fill-rule="nonzero" fill="none" d="M 381.906 97.027 L 252.313 79.115 L 77.292 131.665 L 5.266 99.574"></path>
  <path style="mix-blend-mode: normal;" stroke-dashoffset="0" stroke-dasharray="" stroke-miterlimit="10" stroke-linejoin="miter" stroke-linecap="butt" stroke-width="20" stroke="#000000" fill-rule="nonzero" fill="none" d="M 495.498 193.81 L 383.494 184.093 L 201.274 228.447 L 119.877 202.469"></path>
  <path style="mix-blend-mode: normal;" stroke-dashoffset="0" stroke-dasharray="" stroke-miterlimit="10" stroke-linejoin="miter" stroke-linecap="butt" stroke-width="20" stroke="#000000" fill-rule="nonzero" fill="none" d="M 400.244 284.48 L 281.042 274.96 L 97.36 312.496 L 12.907 284.48"></path>
  <path transform="matrix(0.998126, 0.061192, -0.061192, 0.998126, 5.69208, -6.854411)" style="mix-blend-mode: normal;" stroke-dashoffset="0" stroke-dasharray="" stroke-miterlimit="10" stroke-linejoin="miter" stroke-linecap="butt" stroke-width="20" stroke="#000000" fill-rule="nonzero" fill="none" d="M 155.29 108.918 C 161.468 73.991 78.597 56.345 73.893 82.94"></path>
  <path transform="matrix(0.999896, -0.0144, 0.0144, 0.999896, -2.788907, 3.579822)" style="mix-blend-mode: normal;" stroke-dashoffset="0" stroke-dasharray="" stroke-miterlimit="10" stroke-linejoin="miter" stroke-linecap="butt" stroke-width="20" stroke="#000000" fill-rule="nonzero" fill="none" d="M 287.729 214.869 C 293.907 179.942 211.036 162.296 206.332 188.891"></path>
  <path transform="matrix(-0.998515, 0.054469, -0.054469, -0.998515, 543.951984, 584.936109)" style="mix-blend-mode: normal;" stroke-dashoffset="0" stroke-dasharray="" stroke-miterlimit="10" stroke-linejoin="miter" stroke-linecap="butt" stroke-width="20" stroke="#000000" fill-rule="nonzero" fill="none" d="M 304.539 319.293 C 310.717 284.366 227.846 266.72 223.142 293.315"></path>
</svg>