<svg version="1.1" xmlns="http://www.w3.org/2000/svg" xmlns:xlink="http://www.w3.org/1999/xlink" width="501.01436" height="370.30764" viewBox="0,0,501.01436,370.30764"><g transform="translate(10.50719,5.15383)"><g data-paper-data="{&quot;isPaintingLayer&quot;:true}" fill="none" fill-rule="nonzero" stroke="#000000" stroke-width="20" stroke-linejoin="miter" stroke-miterlimit="10" stroke-dasharray="" stroke-dashoffset="0" style="mix-blend-mode: normal"><path d="M-0.50718,4.84617v209.16918h48.10144M-0.50718,214.01535v139.44611h432.91292M47.59426,4.84617h432.91292v348.61529M143.79713,4.84617v139.44611h-96.20287v-69.72306h48.10144M143.79713,144.29229h48.10144v69.72306h-48.10144v69.72306h-96.20287M95.69569,144.29229v69.72306M191.89856,74.56924h48.10144v69.72306h48.10144v69.72306h96.20287v-139.44611M432.40574,74.56924h-96.20287v69.72306M336.20287,214.01535v69.72306h-96.20287v-69.72306M288.10143,283.7384v69.72306M191.89856,283.7384v69.72306M480.50718,283.7384h-96.20287M480.50718,144.29229h-48.10144v69.72306" stroke-linecap="square"/><path d="M42.5,6.15382l-39,-1" stroke-linecap="round"/><path d="M478.5,355.15382l-39,-1" stroke-linecap="round"/></g></g></svg>