<svg version="1.1" xmlns="http://www.w3.org/2000/svg" xmlns:xlink="http://www.w3.org/1999/xlink" width="505.657" height="385.984" viewBox="0,0,505.657,385.984"><g transform="translate(12.82864,12.99176)"><g data-paper-data="{&quot;isPaintingLayer&quot;:true}" fill="none" fill-rule="nonzero" stroke="#000000" stroke-width="25" stroke-linecap="butt" stroke-linejoin="miter" stroke-miterlimit="10" stroke-dasharray="" stroke-dashoffset="0" style="mix-blend-mode: normal"><path d="M485.57236,360.49224h-485.901v-358.625"/><path d="M-5.68064,-0.49176h486.009v356.263"/><path d="M371.57736,86.53524l-129.593,-17.912l-175.021,52.55l-72.026,-32.091"/><path d="M485.16936,183.31824l-112.004,-9.717l-182.22,44.354l-81.397,-25.978"/><path d="M389.91536,273.98824l-119.202,-9.52l-183.682,37.536l-84.453,-28.016"/><path d="M64.0427,69.96006c6.32259,-26.25731 87.95849,-3.57334 79.65482,30.91016"/><path d="M195.91302,178.98824c4.32054,-26.65997 87.43703,-10.20915 81.76262,24.80318"/><path d="M294.83613,293.71924c-3.24841,26.81173 -86.95751,13.70583 -82.69112,-21.50581"/></g></g></svg>