<svg version="1.1" xmlns="http://www.w3.org/2000/svg" xmlns:xlink="http://www.w3.org/1999/xlink" width="266.91368" height="630.75722" viewBox="0,0,266.91368,630.75722"><defs><linearGradient x1="446.64741" y1="260.97394" x2="410.78464" y2="260.97394" gradientUnits="userSpaceOnUse" id="color-1"><stop offset="0" stop-color="#d1d2d3"/><stop offset="1" stop-color="#a4a5a8"/></linearGradient><linearGradient x1="447.28852" y1="220.11704" x2="411.42575" y2="220.11704" gradientUnits="userSpaceOnUse" id="color-2"><stop offset="0" stop-color="#d1d2d3"/><stop offset="1" stop-color="#a4a5a8"/></linearGradient><linearGradient x1="450.0091" y1="187.88648" x2="414.14633" y2="187.88648" gradientUnits="userSpaceOnUse" id="color-3"><stop offset="0" stop-color="#d1d2d3"/><stop offset="1" stop-color="#a4a5a8"/></linearGradient><linearGradient x1="453.48949" y1="153.3765" x2="417.62672" y2="153.3765" gradientUnits="userSpaceOnUse" id="color-4"><stop offset="0" stop-color="#d1d2d3"/><stop offset="1" stop-color="#a4a5a8"/></linearGradient><linearGradient x1="453.93065" y1="121.14594" x2="418.06788" y2="121.14594" gradientUnits="userSpaceOnUse" id="color-5"><stop offset="0" stop-color="#d1d2d3"/><stop offset="1" stop-color="#a4a5a8"/></linearGradient><linearGradient x1="456.65122" y1="86.63596" x2="420.78845" y2="86.63596" gradientUnits="userSpaceOnUse" id="color-6"><stop offset="0" stop-color="#d1d2d3"/><stop offset="1" stop-color="#a4a5a8"/></linearGradient><linearGradient x1="457.85219" y1="52.12597" x2="421.98942" y2="52.12597" gradientUnits="userSpaceOnUse" id="color-7"><stop offset="0" stop-color="#d1d2d3"/><stop offset="1" stop-color="#a4a5a8"/></linearGradient><linearGradient x1="458.29335" y1="22.17483" x2="422.43058" y2="22.17483" gradientUnits="userSpaceOnUse" id="color-8"><stop offset="0" stop-color="#d1d2d3"/><stop offset="1" stop-color="#a4a5a8"/></linearGradient><linearGradient x1="444.33529" y1="297.18804" x2="408.47252" y2="297.18804" gradientUnits="userSpaceOnUse" id="color-9"><stop offset="0" stop-color="#d1d2d3"/><stop offset="1" stop-color="#a4a5a8"/></linearGradient><linearGradient x1="462.42915" y1="-8.4937" x2="426.56638" y2="-8.4937" gradientUnits="userSpaceOnUse" id="color-10"><stop offset="0" stop-color="#d1d2d3"/><stop offset="1" stop-color="#a4a5a8"/></linearGradient><linearGradient x1="465.14972" y1="-43.00368" x2="429.28695" y2="-43.00368" gradientUnits="userSpaceOnUse" id="color-11"><stop offset="0" stop-color="#d1d2d3"/><stop offset="1" stop-color="#a4a5a8"/></linearGradient><linearGradient x1="466.35069" y1="-77.51367" x2="430.48792" y2="-77.51367" gradientUnits="userSpaceOnUse" id="color-12"><stop offset="0" stop-color="#d1d2d3"/><stop offset="1" stop-color="#a4a5a8"/></linearGradient><linearGradient x1="468.93065" y1="-115.08529" x2="433.06788" y2="-115.08529" gradientUnits="userSpaceOnUse" id="color-13"><stop offset="0" stop-color="#d1d2d3"/><stop offset="1" stop-color="#a4a5a8"/></linearGradient><linearGradient x1="471.65122" y1="-149.59527" x2="435.78845" y2="-149.59527" gradientUnits="userSpaceOnUse" id="color-14"><stop offset="0" stop-color="#d1d2d3"/><stop offset="1" stop-color="#a4a5a8"/></linearGradient><linearGradient x1="472.85219" y1="-184.10526" x2="436.98942" y2="-184.10526" gradientUnits="userSpaceOnUse" id="color-15"><stop offset="0" stop-color="#d1d2d3"/><stop offset="1" stop-color="#a4a5a8"/></linearGradient><linearGradient x1="473.29335" y1="-214.0564" x2="437.43058" y2="-214.0564" gradientUnits="userSpaceOnUse" id="color-16"><stop offset="0" stop-color="#d1d2d3"/><stop offset="1" stop-color="#a4a5a8"/></linearGradient></defs><g transform="translate(-235.68751,224.24874)"><g data-paper-data="{&quot;isPaintingLayer&quot;:true}" fill-rule="nonzero" stroke-linecap="butt" stroke-linejoin="miter" stroke-miterlimit="10" stroke-dasharray="" stroke-dashoffset="0" style="mix-blend-mode: normal"><path d="M381.01466,269.08749l-14.57784,5.91761l-20.25422,-68.32946l14.57785,-5.91761z" fill="#d1d2d3" stroke="#858585" stroke-width="2"/><path d="M412.99669,250.78161h31.43943c1.21895,0 2.21124,0.99188 2.21124,2.21123v15.96151c0,1.21941 -0.99229,2.21123 -2.21124,2.21123h-31.43943c-17.47492,-1.89986 -19.20517,-7.85255 -19.20517,-8.01644c0,0 -4.39158,-11.41758 19.20517,-12.36754z" data-paper-data="{&quot;index&quot;:null}" fill="url(#color-1)" stroke="none" stroke-width="1"/><path d="M413.6378,209.92471h31.43943c1.21895,0 2.21124,0.99188 2.21124,2.21123v15.96151c0,1.21941 -0.99229,2.21123 -2.21124,2.21123h-31.43943c-17.47492,-1.89986 -19.20517,-7.85255 -19.20517,-8.01644c0,0 -4.39158,-11.41758 19.20517,-12.36754z" data-paper-data="{&quot;index&quot;:null}" fill="url(#color-2)" stroke="none" stroke-width="1"/><path d="M416.35838,177.69415h31.43943c1.21895,0 2.21124,0.99188 2.21124,2.21123v15.96151c0,1.21941 -0.99229,2.21123 -2.21124,2.21123h-31.43943c-17.47492,-1.89986 -19.20517,-7.85255 -19.20517,-8.01644c0,0 -4.39158,-11.41758 19.20517,-12.36754z" data-paper-data="{&quot;index&quot;:null}" fill="url(#color-3)" stroke="none" stroke-width="1"/><path d="M419.83877,143.18417h31.43943c1.21895,0 2.21124,0.99188 2.21124,2.21123v15.96151c0,1.21941 -0.99229,2.21123 -2.21124,2.21123h-31.43943c-17.47492,-1.89986 -19.20517,-7.85255 -19.20517,-8.01644c0,0 -4.39158,-11.41758 19.20517,-12.36754z" data-paper-data="{&quot;index&quot;:null}" fill="url(#color-4)" stroke="none" stroke-width="1"/><path d="M420.27993,110.95361h31.43943c1.21895,0 2.21124,0.99188 2.21124,2.21123v15.96151c0,1.21941 -0.99229,2.21123 -2.21124,2.21123h-31.43943c-17.47492,-1.89986 -19.20517,-7.85255 -19.20517,-8.01644c0,0 -4.39158,-11.41758 19.20517,-12.36754z" data-paper-data="{&quot;index&quot;:null}" fill="url(#color-5)" stroke="none" stroke-width="1"/><path d="M423.0005,76.44363h31.43943c1.21895,0 2.21124,0.99188 2.21124,2.21123v15.96151c0,1.21941 -0.99229,2.21123 -2.21124,2.21123h-31.43943c-17.47492,-1.89986 -19.20517,-7.85255 -19.20517,-8.01644c0,0 -4.39158,-11.41758 19.20517,-12.36754z" data-paper-data="{&quot;index&quot;:null}" fill="url(#color-6)" stroke="none" stroke-width="1"/><path d="M424.20147,41.93364h31.43943c1.21895,0 2.21124,0.99188 2.21124,2.21123v15.96151c0,1.21941 -0.99229,2.21123 -2.21124,2.21123h-31.43943c-17.47492,-1.89986 -19.20517,-7.85255 -19.20517,-8.01644c0,0 -4.39158,-11.41758 19.20517,-12.36754z" data-paper-data="{&quot;index&quot;:null}" fill="url(#color-7)" stroke="none" stroke-width="1"/><path d="M424.64263,11.9825h31.43943c1.21895,0 2.21124,0.99188 2.21124,2.21123v15.96151c0,1.21941 -0.99229,2.21123 -2.21124,2.21123h-31.43943c-17.47492,-1.89986 -19.20517,-7.85255 -19.20517,-8.01644c0,0 -4.39158,-11.41758 19.20517,-12.36754z" data-paper-data="{&quot;index&quot;:null}" fill="url(#color-8)" stroke="none" stroke-width="1"/><path d="M438.35807,318.16574c-12.43202,2.15756 -21.89424,32.87736 -21.52755,32.86469c0.3667,-0.01268 -3.92509,-29.33885 6.22029,-38.75894c11.22954,-10.42673 52.26691,-29.33986 51.90022,-29.32716c-0.3667,0.01268 -23.64705,32.97467 -36.59297,35.22143z" fill="#3c3c3c" stroke="#3a3a3a" stroke-width="5"/><path d="M449.44906,332.46526c-0.71767,16.75039 -14.84028,30.79786 -31.54378,31.37586c-16.70349,0.578 -29.66256,-12.53231 -28.9449,-29.28271c0.71767,-16.75039 14.87967,-31.71693 31.58316,-32.29494c7.80525,-0.27008 29.10567,25.53051 28.90553,30.20178z" fill="none" stroke="#3a3a3a" stroke-width="20"/><path d="M309.01479,260.23751l0.5119,-11.94791c0,0 27.63084,-0.95614 33.94371,-1.1746c2.44249,-0.08451 5.08124,-0.17583 5.08124,-0.17583l-0.5119,11.94791z" fill="#8d8e8f" stroke="none" stroke-width="0"/><path d="M464.70157,269.07916l-2.07987,-11.29487c0,0 26.83407,-12.76712 32.96489,-15.68406c2.37205,-1.12858 4.93473,-2.34784 4.93473,-2.34784l2.07987,11.29487z" fill="#69696a" stroke="none" stroke-width="0"/><path d="M410.68457,286.9957h31.43943c1.21895,0 2.21124,0.99188 2.21124,2.21124v15.96151c0,1.21941 -0.99229,2.21124 -2.21124,2.21124h-31.43943c-17.47491,-1.89986 -19.20517,-7.85255 -19.20517,-8.01644c0,0 -4.39158,-11.41758 19.20517,-12.36754z" data-paper-data="{&quot;index&quot;:null}" fill="url(#color-9)" stroke="none" stroke-width="1"/><path d="M300.01088,333.96563l3.38641,-79.03997l80.56136,-1.73589l-0.58553,16.84431l78.0237,-2.16184l0.22278,-11.84135c0,0 8.83178,-1.01805 16.20263,-1.54962c2.59705,-0.18729 5.01273,-0.31419 6.79683,-0.31488c16.14545,-0.00629 4.66288,73.24966 4.66288,73.24966z" fill="#d1d2d3" stroke="none" stroke-width="0"/><path d="M431.33935,406.50848l4.72523,-110.28832l54.63494,-1.8906l-4.72523,110.28832z" fill="#d1d2d3" stroke="none" stroke-width="0"/><path d="M235.68751,181.5625v-3.25h8.875v3.25z" fill="none" stroke="none" stroke-width="0"/><path d="M428.77843,-18.68603h31.43943c1.21895,0 2.21124,0.99188 2.21124,2.21123v15.96151c0,1.21941 -0.99229,2.21123 -2.21124,2.21123h-31.43943c-17.47492,-1.89986 -19.20517,-7.85255 -19.20517,-8.01644c0,0 -4.39158,-11.41758 19.20517,-12.36754z" data-paper-data="{&quot;index&quot;:null}" fill="url(#color-10)" stroke="none" stroke-width="1"/><path d="M431.499,-53.19601h31.43943c1.21895,0 2.21124,0.99188 2.21124,2.21123v15.96151c0,1.21941 -0.99229,2.21123 -2.21124,2.21123h-31.43943c-17.47492,-1.89986 -19.20517,-7.85255 -19.20517,-8.01644c0,0 -4.39158,-11.41758 19.20517,-12.36754z" data-paper-data="{&quot;index&quot;:null}" fill="url(#color-11)" stroke="none" stroke-width="1"/><path d="M432.69997,-87.706h31.43943c1.21895,0 2.21124,0.99188 2.21124,2.21123v15.96151c0,1.21941 -0.99229,2.21123 -2.21124,2.21123h-31.43943c-17.47492,-1.89986 -19.20517,-7.85255 -19.20517,-8.01644c0,0 -4.39158,-11.41758 19.20517,-12.36754z" data-paper-data="{&quot;index&quot;:null}" fill="url(#color-12)" stroke="none" stroke-width="1"/><path d="M435.27993,-125.27762h31.43943c1.21895,0 2.21124,0.99188 2.21124,2.21123v15.96151c0,1.21941 -0.99229,2.21123 -2.21124,2.21123h-31.43943c-17.47492,-1.89986 -19.20517,-7.85255 -19.20517,-8.01644c0,0 -4.39158,-11.41758 19.20517,-12.36754z" data-paper-data="{&quot;index&quot;:null}" fill="url(#color-13)" stroke="none" stroke-width="1"/><path d="M438.0005,-159.7876h31.43943c1.21895,0 2.21124,0.99188 2.21124,2.21123v15.96151c0,1.21941 -0.99229,2.21123 -2.21124,2.21123h-31.43943c-17.47492,-1.89986 -19.20517,-7.85255 -19.20517,-8.01644c0,0 -4.39158,-11.41758 19.20517,-12.36754z" data-paper-data="{&quot;index&quot;:null}" fill="url(#color-14)" stroke="none" stroke-width="1"/><path d="M439.20147,-194.29759h31.43943c1.21895,0 2.21124,0.99188 2.21124,2.21123v15.96151c0,1.21941 -0.99229,2.21123 -2.21124,2.21123h-31.43943c-17.47492,-1.89986 -19.20517,-7.85255 -19.20517,-8.01644c0,0 -4.39158,-11.41758 19.20517,-12.36754z" data-paper-data="{&quot;index&quot;:null}" fill="url(#color-15)" stroke="none" stroke-width="1"/><path d="M439.64263,-224.24873h31.43943c1.21895,0 2.21124,0.99188 2.21124,2.21123v15.96151c0,1.21941 -0.99229,2.21123 -2.21124,2.21123h-31.43943c-17.47492,-1.89986 -19.20517,-7.85255 -19.20517,-8.01644c0,0 -4.39158,-11.41758 19.20517,-12.36754z" data-paper-data="{&quot;index&quot;:null}" fill="url(#color-16)" stroke="none" stroke-width="1"/></g></g></svg>