<svg version="1.1" xmlns="http://www.w3.org/2000/svg" xmlns:xlink="http://www.w3.org/1999/xlink" width="505.657" height="386.93326" viewBox="0,0,505.657,386.93326"><g transform="translate(12.82864,12.99176)"><g data-paper-data="{&quot;isPaintingLayer&quot;:true}" fill="none" fill-rule="nonzero" stroke="#000000" stroke-width="25" stroke-linecap="butt" stroke-linejoin="miter" stroke-miterlimit="10" stroke-dasharray="" stroke-dashoffset="0" style="mix-blend-mode: normal"><path d="M485.57236,360.49224h-485.901v-358.625"/><path d="M182.59906,83.87491l-113.07538,56.21467"/><path d="M99.01136,176.40224l19.419,54.443"/><path d="M-5.68064,-0.49176h486.009v356.263"/><path d="M314.06036,79.31024v-74.788"/><path d="M375.48736,77.26524l43.462,142.97"/><path d="M129.15816,346.56943c-121.60372,59.63364 -137.58977,-75.41862 -115.2173,-134.427"/><path d="M275.48836,283.75824l12.946,72.013"/><path d="M222.12636,297.16824l20.605,-99.902l236.985,1.496"/><path d="M328.30836,293.53624l18.957,-97.135"/><path d="M0.54151,127.46392c38.97872,-303.57548 344.91755,27.7612 50.53585,52.21559"/><path d="M289.80036,192.41424v-60.906"/><path d="M218.88736,118.08124v-122.26"/><path d="M234.28336,226.32524h-84.459"/><path d="M87.29336,82.52924l-66.427,-23.58"/><path d="M55.61436,355.30923v-93.353"/><path d="M216.00936,96.21324h77.124"/><path d="M426.59436,56.70524l49.472,-54.488"/><path d="M353.69636,102.18624l-12.946,104.562"/><path d="M437.70635,269.37125l-71.666,90.116"/></g></g></svg>