<svg version="1.1" xmlns="http://www.w3.org/2000/svg" xmlns:xlink="http://www.w3.org/1999/xlink" width="500.657" height="381.93326" viewBox="0,0,500.657,381.93326"><g transform="translate(10.32864,10.49176)"><g data-paper-data="{&quot;isPaintingLayer&quot;:true}" fill-rule="nonzero" stroke-linecap="butt" stroke-linejoin="miter" stroke-miterlimit="10" stroke-dasharray="" stroke-dashoffset="0" style="mix-blend-mode: normal"><path d="M485.57236,360.49224h-485.901v-358.625" fill="none" stroke="#000000" stroke-width="20"/><path d="M69.52368,140.08958l113.07538,-56.21467" fill="none" stroke="#000000" stroke-width="20"/><path d="M99.01136,176.40224l19.419,54.443" fill="none" stroke="#000000" stroke-width="20"/><path d="M-5.68064,-0.49176h486.009v356.263" fill="none" stroke="#000000" stroke-width="20"/><path d="M314.06036,79.31024v-74.788" fill="none" stroke="#000000" stroke-width="20"/><path d="M375.48736,77.26524l43.462,142.97" fill="none" stroke="#000000" stroke-width="20"/><path d="M129.15816,346.56943c-121.60372,59.63364 -137.58977,-75.41862 -115.2173,-134.427" fill="none" stroke="#000000" stroke-width="20"/><path d="M288.43436,355.77124l-12.946,-72.013" fill="none" stroke="#000000" stroke-width="20"/><path d="M222.12636,297.16824l20.605,-99.902l236.985,1.496" fill="none" stroke="#000000" stroke-width="20"/><path d="M347.26536,196.40124l-18.957,97.135" fill="none" stroke="#000000" stroke-width="20"/><path d="M0.54151,127.46392c38.97872,-303.57548 344.91755,27.7612 50.53585,52.21559" fill="none" stroke="#000000" stroke-width="20"/><path d="M289.80036,192.41424v-60.906" fill="none" stroke="#000000" stroke-width="20"/><path d="M218.88736,-4.17876v122.26" fill="none" stroke="#000000" stroke-width="20"/><path d="M149.82436,226.32524h84.459" fill="none" stroke="#000000" stroke-width="20"/><path d="M87.29336,82.52924l-66.427,-23.58" fill="none" stroke="#000000" stroke-width="20"/><path d="M55.61436,261.95623v93.353" fill="none" stroke="#000000" stroke-width="20"/><path d="M293.13336,96.21324h-77.124" fill="none" stroke="#000000" stroke-width="20"/><path d="M426.59436,56.70524l49.472,-54.488" fill="none" stroke="#000000" stroke-width="20"/><path d="M340.75036,206.74824l12.946,-104.562" fill="none" stroke="#000000" stroke-width="20"/><path d="M366.04035,359.48725l71.666,-90.116" fill="none" stroke="#000000" stroke-width="20"/><path d="M27.84244,40.85909c-3.26692,4.90038 -5.83675,11.54594 -11.14137,14.61475c-8.54923,4.94587 -20.01061,0.11154 -22.5122,-9.14433c-1.84756,-6.83597 4.84803,-16.73465 8.21123,-21.96531c3.11511,-4.84481 4.78382,-10.43238 8.29573,-15.06756c0.3743,-0.49401 0.81736,-0.92198 1.3044,-1.30349c1.68438,-1.65198 3.79991,-2.86595 6.16221,-3.45751c0.02733,-0.01875 0.05448,-0.0376 0.08144,-0.05656c6.02862,-4.23923 10.34766,-8.76284 18.45625,-8.895c7.21215,-0.11755 10.98667,9.70436 11.56969,15.38914c1.14895,11.20286 -9.15896,27.1143 -20.32363,29.59534z" fill="#000000" stroke="none" stroke-width="0.5"/><path d="M18.68015,321.9934c3.73106,2.66414 7.33839,10.09209 8.8505,14.32599c0.51462,1.44094 0.37117,3.1686 1.26028,4.41384c0.76711,1.07437 2.15494,1.72734 2.634,2.95747c0.97795,2.5112 1.75317,5.23331 1.60368,7.92407c-0.36192,6.5145 -10.14826,14.08028 -16.7758,12.3971c-6.5211,-1.65615 -11.93761,-6.92711 -13.60777,-13.60777c-0.3174,-1.26962 0.11391,-2.68052 -0.32797,-3.91236c-1.32175,-3.68461 -3.94097,-6.20888 -4.9416,-10.20954c-1.10474,-4.4169 1.76791,-13.22734 6.69138,-14.558c1.99886,-1.16973 4.32545,-1.84017 6.80862,-1.84017c1.69374,0 3.31462,0.31191 4.80835,0.88143c1.07885,0.24012 2.10504,0.59152 2.99634,1.22794z" fill="#000000" stroke="none" stroke-width="0.5"/></g></g></svg>