<svg version="1.1" xmlns="http://www.w3.org/2000/svg" xmlns:xlink="http://www.w3.org/1999/xlink" width="263.11464" height="639.11081" viewBox="0,0,263.11464,639.11081"><defs><linearGradient x1="443.57548" y1="274.39382" x2="407.71271" y2="274.39382" gradientUnits="userSpaceOnUse" id="color-1"><stop offset="0" stop-color="#d1d2d3"/><stop offset="1" stop-color="#a4a5a8"/></linearGradient><linearGradient x1="445.8876" y1="238.17972" x2="410.02483" y2="238.17972" gradientUnits="userSpaceOnUse" id="color-2"><stop offset="0" stop-color="#d1d2d3"/><stop offset="1" stop-color="#a4a5a8"/></linearGradient><linearGradient x1="446.52871" y1="197.32282" x2="410.66594" y2="197.32282" gradientUnits="userSpaceOnUse" id="color-3"><stop offset="0" stop-color="#d1d2d3"/><stop offset="1" stop-color="#a4a5a8"/></linearGradient><linearGradient x1="449.24929" y1="165.09226" x2="413.38652" y2="165.09226" gradientUnits="userSpaceOnUse" id="color-4"><stop offset="0" stop-color="#d1d2d3"/><stop offset="1" stop-color="#a4a5a8"/></linearGradient><linearGradient x1="452.72968" y1="130.58228" x2="416.86691" y2="130.58228" gradientUnits="userSpaceOnUse" id="color-5"><stop offset="0" stop-color="#d1d2d3"/><stop offset="1" stop-color="#a4a5a8"/></linearGradient><linearGradient x1="453.17084" y1="98.35172" x2="417.30807" y2="98.35172" gradientUnits="userSpaceOnUse" id="color-6"><stop offset="0" stop-color="#d1d2d3"/><stop offset="1" stop-color="#a4a5a8"/></linearGradient><linearGradient x1="455.89141" y1="63.84174" x2="420.02864" y2="63.84174" gradientUnits="userSpaceOnUse" id="color-7"><stop offset="0" stop-color="#d1d2d3"/><stop offset="1" stop-color="#a4a5a8"/></linearGradient><linearGradient x1="457.09238" y1="29.33175" x2="421.22961" y2="29.33175" gradientUnits="userSpaceOnUse" id="color-8"><stop offset="0" stop-color="#d1d2d3"/><stop offset="1" stop-color="#a4a5a8"/></linearGradient><linearGradient x1="457.53354" y1="-0.61939" x2="421.67077" y2="-0.61939" gradientUnits="userSpaceOnUse" id="color-9"><stop offset="0" stop-color="#d1d2d3"/><stop offset="1" stop-color="#a4a5a8"/></linearGradient><linearGradient x1="459.67234" y1="-37.78942" x2="423.80957" y2="-37.78942" gradientUnits="userSpaceOnUse" id="color-10"><stop offset="0" stop-color="#d1d2d3"/><stop offset="1" stop-color="#a4a5a8"/></linearGradient><linearGradient x1="462.39291" y1="-78.30541" x2="426.53014" y2="-78.30541" gradientUnits="userSpaceOnUse" id="color-11"><stop offset="0" stop-color="#d1d2d3"/><stop offset="1" stop-color="#a4a5a8"/></linearGradient><linearGradient x1="464.03504" y1="-116.21999" x2="428.17227" y2="-116.21999" gradientUnits="userSpaceOnUse" id="color-12"><stop offset="0" stop-color="#d1d2d3"/><stop offset="1" stop-color="#a4a5a8"/></linearGradient><linearGradient x1="466.17384" y1="-153.39002" x2="430.31107" y2="-153.39002" gradientUnits="userSpaceOnUse" id="color-13"><stop offset="0" stop-color="#d1d2d3"/><stop offset="1" stop-color="#a4a5a8"/></linearGradient><linearGradient x1="468.89441" y1="-187.9" x2="433.03164" y2="-187.9" gradientUnits="userSpaceOnUse" id="color-14"><stop offset="0" stop-color="#d1d2d3"/><stop offset="1" stop-color="#a4a5a8"/></linearGradient><linearGradient x1="470.09538" y1="-222.40999" x2="434.23261" y2="-222.40999" gradientUnits="userSpaceOnUse" id="color-15"><stop offset="0" stop-color="#d1d2d3"/><stop offset="1" stop-color="#a4a5a8"/></linearGradient></defs><g transform="translate(-235.68751,232.60233)"><g data-paper-data="{&quot;isPaintingLayer&quot;:true}" fill-rule="nonzero" stroke-linecap="butt" stroke-linejoin="miter" stroke-miterlimit="10" stroke-dasharray="" stroke-dashoffset="0" style="mix-blend-mode: normal"><path d="M409.92476,264.20148h31.43943c1.21895,0 2.21124,0.99188 2.21124,2.21124v15.96151c0,1.21941 -0.99229,2.21124 -2.21124,2.21124h-31.43943c-17.47491,-1.89986 -19.20517,-7.85255 -19.20517,-8.01644c0,0 -4.39158,-11.41758 19.20517,-12.36754z" data-paper-data="{&quot;index&quot;:null}" fill="url(#color-1)" stroke="none" stroke-width="1"/><path d="M412.23688,227.98739h31.43943c1.21895,0 2.21124,0.99188 2.21124,2.21123v15.96151c0,1.21941 -0.99229,2.21123 -2.21124,2.21123h-31.43943c-17.47492,-1.89986 -19.20517,-7.85255 -19.20517,-8.01644c0,0 -4.39158,-11.41758 19.20517,-12.36754z" data-paper-data="{&quot;index&quot;:null}" fill="url(#color-2)" stroke="none" stroke-width="1"/><path d="M412.87799,187.13049h31.43943c1.21895,0 2.21124,0.99188 2.21124,2.21123v15.96151c0,1.21941 -0.99229,2.21123 -2.21124,2.21123h-31.43943c-17.47492,-1.89986 -19.20517,-7.85255 -19.20517,-8.01644c0,0 -4.39158,-11.41758 19.20517,-12.36754z" data-paper-data="{&quot;index&quot;:null}" fill="url(#color-3)" stroke="none" stroke-width="1"/><path d="M415.59857,154.89993h31.43943c1.21895,0 2.21124,0.99188 2.21124,2.21123v15.96151c0,1.21941 -0.99229,2.21123 -2.21124,2.21123h-31.43943c-17.47492,-1.89986 -19.20517,-7.85255 -19.20517,-8.01644c0,0 -4.39158,-11.41758 19.20517,-12.36754z" data-paper-data="{&quot;index&quot;:null}" fill="url(#color-4)" stroke="none" stroke-width="1"/><path d="M419.07896,120.38995h31.43943c1.21895,0 2.21124,0.99188 2.21124,2.21123v15.96151c0,1.21941 -0.99229,2.21123 -2.21124,2.21123h-31.43943c-17.47492,-1.89986 -19.20517,-7.85255 -19.20517,-8.01644c0,0 -4.39158,-11.41758 19.20517,-12.36754z" data-paper-data="{&quot;index&quot;:null}" fill="url(#color-5)" stroke="none" stroke-width="1"/><path d="M419.52012,88.15939h31.43943c1.21895,0 2.21124,0.99188 2.21124,2.21123v15.96151c0,1.21941 -0.99229,2.21123 -2.21124,2.21123h-31.43943c-17.47492,-1.89986 -19.20517,-7.85255 -19.20517,-8.01644c0,0 -4.39158,-11.41758 19.20517,-12.36754z" data-paper-data="{&quot;index&quot;:null}" fill="url(#color-6)" stroke="none" stroke-width="1"/><path d="M422.24069,53.64941h31.43943c1.21895,0 2.21124,0.99188 2.21124,2.21123v15.96151c0,1.21941 -0.99229,2.21123 -2.21124,2.21123h-31.43943c-17.47492,-1.89986 -19.20517,-7.85255 -19.20517,-8.01644c0,0 -4.39158,-11.41758 19.20517,-12.36754z" data-paper-data="{&quot;index&quot;:null}" fill="url(#color-7)" stroke="none" stroke-width="1"/><path d="M423.44166,19.13942h31.43943c1.21895,0 2.21124,0.99188 2.21124,2.21123v15.96151c0,1.21941 -0.99229,2.21123 -2.21124,2.21123h-31.43943c-17.47492,-1.89986 -19.20517,-7.85255 -19.20517,-8.01644c0,0 -4.39158,-11.41758 19.20517,-12.36754z" data-paper-data="{&quot;index&quot;:null}" fill="url(#color-8)" stroke="none" stroke-width="1"/><path d="M423.88282,-10.81172h31.43943c1.21895,0 2.21124,0.99188 2.21124,2.21123v15.96151c0,1.21941 -0.99229,2.21123 -2.21124,2.21123h-31.43943c-17.47492,-1.89986 -19.20517,-7.85255 -19.20517,-8.01644c0,0 -4.39158,-11.41758 19.20517,-12.36754z" data-paper-data="{&quot;index&quot;:null}" fill="url(#color-9)" stroke="none" stroke-width="1"/><path d="M438.35807,318.16574c-12.43202,2.15756 -21.89424,32.87736 -21.52755,32.86469c0.3667,-0.01268 -3.92509,-29.33885 6.22029,-38.75894c11.22954,-10.42673 52.26691,-29.33986 51.90022,-29.32716c-0.3667,0.01268 -23.64705,32.97467 -36.59297,35.22143z" fill="#3c3c3c" stroke="#3a3a3a" stroke-width="5"/><path d="M449.44906,332.46526c-0.71767,16.75039 -14.84028,30.79786 -31.54378,31.37586c-16.70349,0.578 -29.66256,-12.53231 -28.9449,-29.28271c0.71767,-16.75039 14.87967,-31.71693 31.58316,-32.29494c7.80525,-0.27008 29.10567,25.53051 28.90553,30.20178z" fill="none" stroke="#3a3a3a" stroke-width="20"/><path d="M309.01479,260.23751l0.5119,-11.94791c0,0 27.63084,-0.95614 33.94371,-1.1746c2.44249,-0.08451 5.08124,-0.17583 5.08124,-0.17583l-0.5119,11.94791z" fill="#8d8e8f" stroke="none" stroke-width="0"/><path d="M460.90253,269.07916l-2.07987,-11.29487c0,0 26.83407,-12.76712 32.96489,-15.68406c2.37205,-1.12858 4.93473,-2.34784 4.93473,-2.34784l2.07987,11.29487z" fill="#69696a" stroke="none" stroke-width="0"/><path d="M381.01466,269.08749l-14.57784,5.91761l-20.25422,-68.32946l14.57785,-5.91761z" fill="#d1d2d3" stroke="#858585" stroke-width="2"/><path d="M300.01088,333.96563l3.38641,-79.03997l80.56136,-1.73589l-0.58553,16.84431l78.0237,-2.16184l-1.29684,-12.60116c0,0 17.6714,-1.10203 24.51907,-1.10469c16.14545,-0.00629 4.66288,73.24966 4.66288,73.24966z" fill="#d1d2d3" stroke="none" stroke-width="0"/><path d="M431.33935,406.50848l4.72523,-110.28832l54.63494,-1.8906l-4.72523,110.28832z" fill="#d1d2d3" stroke="none" stroke-width="0"/><path d="M235.68751,181.5625v-3.25h8.875v3.25z" fill="none" stroke="none" stroke-width="0"/><path d="M426.02162,-47.98175h31.43943c1.21895,0 2.21124,0.99188 2.21124,2.21123v15.96151c0,1.21941 -0.99229,2.21123 -2.21124,2.21123h-31.43943c-17.47492,-1.89986 -19.20517,-7.85255 -19.20517,-8.01644c0,0 -4.39158,-11.41758 19.20517,-12.36754z" data-paper-data="{&quot;index&quot;:null}" fill="url(#color-10)" stroke="none" stroke-width="1"/><path d="M428.74219,-88.49774h31.43943c1.21895,0 2.21124,0.99188 2.21124,2.21123v15.96151c0,1.21941 -0.99229,2.21123 -2.21124,2.21123h-31.43943c-17.47492,-1.89986 -19.20517,-7.85255 -19.20517,-8.01644c0,0 -4.39158,-11.41758 19.20517,-12.36754z" data-paper-data="{&quot;index&quot;:null}" fill="url(#color-11)" stroke="none" stroke-width="1"/><path d="M430.38432,-126.41232h31.43943c1.21895,0 2.21124,0.99188 2.21124,2.21123v15.96151c0,1.21941 -0.99229,2.21123 -2.21124,2.21123h-31.43943c-17.47492,-1.89986 -19.20517,-7.85255 -19.20517,-8.01644c0,0 -4.39158,-11.41758 19.20517,-12.36754z" data-paper-data="{&quot;index&quot;:null}" fill="url(#color-12)" stroke="none" stroke-width="1"/><path d="M432.52312,-163.58235h31.43943c1.21895,0 2.21124,0.99188 2.21124,2.21123v15.96151c0,1.21941 -0.99229,2.21123 -2.21124,2.21123h-31.43943c-17.47492,-1.89986 -19.20517,-7.85255 -19.20517,-8.01644c0,0 -4.39158,-11.41758 19.20517,-12.36754z" data-paper-data="{&quot;index&quot;:null}" fill="url(#color-13)" stroke="none" stroke-width="1"/><path d="M435.24369,-198.09233h31.43943c1.21895,0 2.21124,0.99188 2.21124,2.21123v15.96151c0,1.21941 -0.99229,2.21123 -2.21124,2.21123h-31.43943c-17.47492,-1.89986 -19.20517,-7.85255 -19.20517,-8.01644c0,0 -4.39158,-11.41758 19.20517,-12.36754z" data-paper-data="{&quot;index&quot;:null}" fill="url(#color-14)" stroke="none" stroke-width="1"/><path d="M436.44466,-232.60232h31.43943c1.21895,0 2.21124,0.99188 2.21124,2.21123v15.96151c0,1.21941 -0.99229,2.21123 -2.21124,2.21123h-31.43943c-17.47492,-1.89986 -19.20517,-7.85255 -19.20517,-8.01644c0,0 -4.39158,-11.41758 19.20517,-12.36754z" data-paper-data="{&quot;index&quot;:null}" fill="url(#color-15)" stroke="none" stroke-width="1"/></g></g></svg>