<svg version="1.1" xmlns="http://www.w3.org/2000/svg" xmlns:xlink="http://www.w3.org/1999/xlink" width="216.11449" height="223.76018" viewBox="0,0,216.11449,223.76018"><g transform="translate(-306.77105,-204.66716)"><g data-paper-data="{&quot;isPaintingLayer&quot;:true}" fill-rule="nonzero" stroke-linecap="butt" stroke-linejoin="miter" stroke-miterlimit="10" stroke-dasharray="" stroke-dashoffset="0" style="mix-blend-mode: normal"><path d="M434.36947,329.75375c-11.83631,-4.37171 -35.4354,17.45311 -35.11185,17.62614c0.32356,0.17303 11.32613,-27.34764 24.82861,-30.40539c14.94538,-3.3845 59.9328,0.84691 59.60923,0.6739c-0.32356,-0.17303 -37.00041,16.65778 -49.326,12.10536z" fill="#3c3c3c" stroke="#3a3a3a" stroke-width="5"/><path d="M436.78813,347.68798c-9.02562,14.12901 -28.29029,19.1938 -43.02886,11.31247c-14.73857,-7.88133 -19.36983,-25.72423 -10.34422,-39.85325c9.02562,-14.12901 28.78552,-19.96903 43.52409,-12.08771c6.88707,3.68281 12.36602,36.68826 9.849,40.62849z" fill="none" stroke="#3a3a3a" stroke-width="20"/><path d="M351.55394,214.74526l6.43789,-10.0781c0,0 24.38048,13.03725 29.95074,16.01588c2.15516,1.15246 4.48351,2.39752 4.48351,2.39752l-6.43789,10.0781z" fill="#8d8e8f" stroke="none" stroke-width="0"/><path d="M477.18613,297.84341l3.86833,-10.81369c0,0 29.61766,2.42093 36.38446,2.97404c2.61811,0.214 5.44662,0.44521 5.44662,0.44521l-3.86833,10.81369z" fill="#69696a" stroke="none" stroke-width="0"/><path d="M306.77105,274.00231l42.58908,-66.67049c0,0 -0.22515,-0.92648 157.13807,90.27474c13.969,8.09585 -32.72103,65.70076 -32.72103,65.70076z" fill="#d1d2d3" stroke="none" stroke-width="0"/><path d="M383.97059,402.64858l59.42662,-93.02859l48.20795,25.77876l-59.42662,93.02859z" fill="#d1d2d3" stroke="none" stroke-width="0"/><path d="M411.81491,262.34444l7.13167,-14.02393l62.43578,35.09818l-7.13167,14.02394z" fill="#d1d2d3" stroke="#858585" stroke-width="2"/></g></g></svg>