<svg version="1.1" xmlns="http://www.w3.org/2000/svg" xmlns:xlink="http://www.w3.org/1999/xlink" width="500.657" height="381.34016" viewBox="0,0,500.657,381.34016"><g transform="translate(10.32864,10.49176)"><g data-paper-data="{&quot;isPaintingLayer&quot;:true}" fill-rule="nonzero" stroke="#000000" stroke-linecap="butt" stroke-linejoin="miter" stroke-miterlimit="10" stroke-dasharray="" stroke-dashoffset="0" style="mix-blend-mode: normal"><path d="M485.57237,360.49224h-485.901v-358.625" fill="none" stroke-width="20"/><path d="M-0.32863,219.55224h49.818" fill="none" stroke-width="20"/><path d="M171.22337,302.77324l19.419,54.443" fill="none" stroke-width="20"/><path d="M-5.68063,-0.49176h486.009v356.263" fill="none" stroke-width="20"/><path d="M287.51135,76.65524v-74.788" fill="none" stroke-width="20"/><path d="M144.51537,1.86724l43.462,142.97" fill="none" stroke-width="20"/><path d="M412.36137,199.29924c126.056,53.854 49.619,166.75 -34.913,161.363" fill="none" stroke-width="20"/><path d="M275.48837,283.75824l12.946,72.013" fill="none" stroke-width="20"/><path d="M222.12637,297.16824l20.605,-99.902l236.985,1.496" fill="none" stroke-width="20"/><path d="M328.30836,293.53624l18.957,-97.135" fill="none" stroke-width="20"/><path d="M285.20437,68.44424c231.665,-200.022 238.293,250.909 2.774,72.613" fill="none" stroke-width="20"/><path d="M289.80037,192.41424v-60.906" fill="none" stroke-width="20"/><path d="M218.88737,118.08124v-122.26" fill="none" stroke-width="20"/><path d="M158.32037,216.23724h84.459" fill="none" stroke-width="20"/><path d="M175.43437,312.97024l-66.427,-23.58" fill="none" stroke-width="20"/><path d="M44.05437,307.45324v-93.353" fill="none" stroke-width="20"/><path d="M79.15237,82.61124h-77.124" fill="none" stroke-width="20"/><path d="M113.94537,32.15524l-49.472,54.488" fill="none" stroke-width="20"/><path d="M114.55737,293.29624l12.946,-104.562" fill="none" stroke-width="20"/><path d="M114.33337,131.33824l-71.666,90.116" fill="none" stroke-width="20"/><path d="M287.72324,25.71604c2.21576,-2.56562 -1.99741,-6.91149 -1.36378,-9.91021c1.42705,-6.75368 1.43164,-6.7611 6.83411,-11.05782c0.66663,-0.53019 1.65001,-0.42406 2.47899,-0.61975c0.80874,-0.19091 4.50781,-1.41119 6.15769,-1.2462c1.60956,0.16095 3.07447,1.55607 4.67302,1.30858c0.95233,-0.14744 1.42568,-1.30011 2.188,-1.88964c1.81161,-1.40095 4.32677,-1.55573 6.57449,-1.99434c5.55132,-1.08324 13.51215,0.21627 19.76192,0.41138c2.17749,0.06798 4.35056,0.25691 6.52861,0.30329c7.88612,0.16792 25.42854,-1.58956 28.42752,9.50664c1.95481,7.23278 -1.63038,15.99856 -9.25993,17.90595c-2.31916,0.57979 -5.68252,0.23656 -7.9341,0.40308c-3.63261,0.26866 -7.08613,2.33581 -10.83928,2.44701c-2.95272,0.08748 -11.87717,-1.06047 -16.15309,1.49249c-2.97359,1.7754 -5.57106,4.9586 -7.99167,7.40232c-3.00803,3.03676 -6.70348,4.90335 -9.94765,7.58609c-3.52396,2.91412 -5.32715,5.85698 -10.76935,5.54214c-10.46731,-0.60554 -15.02672,-9.52035 -12.74767,-18.95632c0.57169,-2.36697 1.13464,-5.68462 3.05647,-7.3319z" fill="#000000" stroke-width="0.5"/><path d="M470.91984,3.26223c4.08844,2.09987 6.14338,7.2651 6.88639,11.32009c0.57442,3.13491 -0.56654,6.26319 -2.59471,8.83166c4.83064,10.83492 4.4857,24.34919 5.77327,35.76001c0.93554,8.29098 3.94511,10.46795 2.85484,21.41648c-0.40224,4.0393 -1.74113,9.13109 -5.69531,11.39063c-6.5762,3.75783 -16.00222,2.58931 -19.61719,-4.64062c-2.5805,-5.161 -0.53371,-9.28918 -1.87582,-14.34301c-2.26785,-8.53974 -4.85267,-16.64998 -5.92919,-25.44157c-0.51363,-4.19467 -0.6991,-7.64488 -1.7177,-11.75347c-0.244,-0.98418 -0.84812,-4.27152 -1.6953,-4.56638c-7.4447,-2.59109 -14.82901,-4.77174 -22.11457,-7.95389c-0.23499,-0.10264 -0.64459,-0.21693 -1.16689,-0.33656c-0.72236,0.11953 -1.46407,0.18171 -2.22031,0.18171c-2.30102,0 -4.46759,-0.57568 -6.36353,-1.59088c-4.24733,-2.27427 -7.13647,-6.7543 -7.13647,-11.90912c0,-1.69374 0.31191,-3.31462 0.88143,-4.80835c0.24012,-1.07885 0.59152,-2.10504 1.22794,-2.99634c1.49468,-2.09326 3.4671,-3.52514 5.70348,-4.4425c1.60804,-0.74798 3.38797,-1.18858 5.2643,-1.24631c4.89791,-0.4714 10.2041,0.60774 14.32744,2.14427c3.08841,1.15087 6.09435,2.58287 9.12486,3.84386c0.44373,0.18464 2.82913,1.94443 3.31314,1.54487c4.79067,-3.9548 9.50283,-4.51929 14.83333,-1.83885c2.61392,-0.3088 5.35089,0.10624 7.93656,1.43428z" fill="#000000" stroke-width="0.5"/><path d="M476.34789,217.06494c1.23646,4.86854 2.12037,11.97057 -1.57225,16.27863c-8.39952,9.79944 -24.19538,6.01378 -27.28934,-6.36206c-1.53469,-6.13874 -4.00125,-18.27393 -2.92993,-24.53345c0.33498,-1.95725 0.67285,-4.0273 1.36092,-5.92614c-2.35551,0.94031 -4.67345,1.90559 -6.78032,2.1198c-4.24006,0.43109 -8.90029,-0.24131 -13.02044,0.21791c-4.27924,0.47695 -10.70665,-3.01129 -11.89775,-7.41836c-0.49697,-1.83879 -2.14178,-5.93311 -1.60368,-7.92407c5.14715,-19.04444 27.49321,-6.54629 34.36681,-21.46835c0.68704,-1.4915 1.12562,-3.08653 1.75721,-4.60235c0.33893,-0.81342 1.75781,-1.38627 1.88964,-2.188c0.42341,-2.57511 -1.02655,-6.18371 -1.27581,-8.80614c-0.33025,-3.4746 -0.07871,-7.03298 -0.53563,-10.53184c-0.60161,-4.60674 -2.46419,-8.38044 -1.7657,-13.32311c0,-2.50938 0.68466,-4.85886 1.87737,-6.8718c1.03658,-2.25253 2.56586,-4.18042 4.814,-4.78803c1.99886,-1.16973 4.32545,-1.84017 6.80862,-1.84017c2.69975,0 5.2144,0.79248 7.32403,2.15751c1.6596,0.83251 3.04874,2.12349 4.48847,4.59249c0.60765,1.04206 1.00841,2.2171 1.28492,3.4646c0.16125,0.64488 0.27611,1.30814 0.34085,1.98603c0.39025,2.99734 0.35148,6.21135 0.88215,8.91092c2.06713,10.51573 2.36816,21.67916 3.25792,32.35621c0.29721,3.56656 1.33405,7.71833 0.48065,11.13191c-0.33671,1.34683 -1.20438,2.57272 -1.29632,3.95795c-0.19496,2.93732 1.65228,6.14811 1.30762,8.91136c-0.66289,5.31461 -3.58642,9.48816 -7.94048,11.54638c0.38469,1.77815 0.46311,3.66375 0.87494,5.43735c0.28531,1.22872 0.71681,3.02264 1.19564,4.84436c1.07302,1.78998 1.74302,3.8492 1.88459,6.05225c0.41324,0.94082 1.42712,1.59019 1.67635,2.58708z" fill="#000000" stroke-width="0.5"/><path d="M305.63043,153.21371c1.4827,1.05871 2.29581,2.06848 2.8481,3.09697c1.30403,1.67257 2.22278,3.66024 2.62287,5.82964c0.42982,0.64146 2.65403,0.55973 3.22844,0.66831c3.10746,0.58743 6.3601,1.40365 9.41923,2.21186c3.58709,0.94769 12.09293,1.04383 15.08474,3.26904c2.07536,1.54358 3.67929,2.69769 5.38576,4.6736c0.16592,0.19212 -0.021,0.5147 0.40962,0.57208c5.04735,0.67254 10.91946,0.41791 13.93511,5.69531c3.75783,6.5762 2.58931,16.00222 -4.64062,19.61719c-2.0744,1.0372 -4.444,1.43999 -6.75,1.6875c-6.45019,0.69231 -12.3931,-0.52977 -18.59289,-1.62658c-1.91671,-0.33909 -5.15775,1.11909 -7.10067,1.21874c-3.5658,0.18289 -7.2727,0.09689 -10.80425,-0.26216c-4.02687,-0.40941 -9.72114,-2.72749 -12.08504,-6.0006c-1.03488,-1.43291 -1.4338,-3.40531 -2.49127,-4.80953c-1.3788,-1.83091 -3.96226,-3.31216 -5.5323,-4.91079c-3.82751,-3.89721 -4.97244,-8.34501 -5.50757,-13.74932c-0.0591,-0.5969 -0.11986,-1.24363 -0.17239,-1.92507c-0.36534,-1.22463 -0.56156,-2.52219 -0.56156,-3.86558c0,-1.76258 0.33778,-3.44626 0.95215,-4.98985c0.74055,-3.12397 2.38251,-5.76276 5.73923,-6.66998c1.99886,-1.16973 4.32545,-1.84017 6.80862,-1.84017c1.69374,0 3.31462,0.31191 4.80835,0.88143c1.07885,0.24012 2.10504,0.59152 2.99634,1.22794z" fill="#000000" stroke-width="0.5"/><path d="M482.72745,351.57193c-4.01521,12.04562 -18.18411,11.72303 -29.00736,10.85311c-0.18108,0.022 -0.36384,0.04233 -0.54832,0.06096c-12.03434,1.21489 -20.68967,-9.60053 -14.92088,-21.13811c2.94634,-5.89267 7.26791,-5.71038 12.98797,-6.43231c1.16023,-0.14643 1.4971,-1.81052 2.37916,-2.57833c1.72457,-1.5012 5.77511,-5.32196 9.6122,-8.42779c1.62098,-1.94161 3.77713,-3.42092 6.24177,-4.21123c1.30062,-0.41706 2.68716,-0.64224 4.12628,-0.64224c7.23899,0 13.14722,5.69768 13.48478,12.85314c0.12095,1.39068 0.01344,2.81429 -0.35911,4.22659c-0.35103,1.33074 -1.00273,2.62314 -1.8409,3.86136c-0.1487,4.03719 -1.15695,8.57895 -2.15559,11.57486z" fill="#000000" stroke-width="0.5"/></g></g></svg>