<svg version="1.1" xmlns="http://www.w3.org/2000/svg" xmlns:xlink="http://www.w3.org/1999/xlink" width="505.657" height="386.34016" viewBox="0,0,505.657,386.34016"><g transform="translate(12.82865,12.99176)"><g data-paper-data="{&quot;isPaintingLayer&quot;:true}" fill="none" fill-rule="nonzero" stroke="#000000" stroke-width="25" stroke-linecap="butt" stroke-linejoin="miter" stroke-miterlimit="10" stroke-dasharray="" stroke-dashoffset="0" style="mix-blend-mode: normal"><path d="M485.57236,360.49224h-485.901v-358.625"/><path d="M-0.32864,219.55224h49.818"/><path d="M171.22336,302.77324l19.419,54.443"/><path d="M-5.68064,-0.49176h486.009v356.263"/><path d="M287.51135,76.65524v-74.788"/><path d="M144.51536,1.86724l43.462,142.97"/><path d="M412.36136,199.29924c126.056,53.854 49.619,166.75 -34.913,161.363"/><path d="M288.43436,355.77124l-12.946,-72.013"/><path d="M222.12636,299.06757l22.50433,-81.8584l235.08567,-16.5476"/><path d="M328.30836,293.53624l17.05767,-86.68871"/><path d="M285.20436,68.44424c231.665,-200.022 238.293,250.909 2.774,72.613"/><path d="M290.75002,206.65918l-0.94966,-75.15094"/><path d="M218.88736,118.08124v-122.26"/><path d="M158.32036,216.23724h84.459"/><path d="M175.43436,312.97024l-66.427,-23.58"/><path d="M44.05436,307.45324v-93.353"/><path d="M79.15236,82.61124h-77.124"/><path d="M113.94536,32.15524l-49.472,54.488"/><path d="M114.55736,293.29624l12.946,-104.562"/><path d="M114.33336,131.33824l-71.666,90.116"/></g></g></svg>