<svg version="1.1" xmlns="http://www.w3.org/2000/svg" xmlns:xlink="http://www.w3.org/1999/xlink" width="199.53134" height="157.66801" viewBox="0,0,199.53134,157.66801"><g transform="translate(-300.01842,-238.93046)"><g data-paper-data="{&quot;isPaintingLayer&quot;:true}" fill-rule="nonzero" stroke-linecap="butt" stroke-linejoin="miter" stroke-miterlimit="10" stroke-dasharray="" stroke-dashoffset="0" style="mix-blend-mode: normal"><path d="M437.9755,308.12028c-12.38038,2.43647 -8.01298,33.36121 -7.64667,33.34029c0.36632,-0.02092 -17.72027,-29.24321 -7.78921,-38.88897c10.99232,-10.67652 51.59418,-30.50734 51.22786,-30.4864c-0.36632,0.02092 -22.89984,33.4979 -35.79199,36.03509z" fill="#3c3c3c" stroke="#3a3a3a" stroke-width="5"/><path d="M449.38513,322.16688c-0.34096,16.76229 -14.14424,31.12367 -30.83052,32.077c-16.68628,0.95333 -29.93678,-11.86237 -29.59583,-28.62466c0.34096,-16.76229 14.16296,-32.04339 30.84923,-32.99673c7.7972,-0.44547 29.67221,24.8698 29.57712,29.54439z" fill="none" stroke="#3a3a3a" stroke-width="20"/><path d="M307.36275,253.11416l0.2432,-11.95639c0,0 27.60237,-1.577 33.90873,-1.93731c2.43997,-0.1394 5.07601,-0.29 5.07601,-0.29l-0.2432,11.95639z" fill="#8d8e8f" stroke="none" stroke-width="0"/><path d="M454.01229,257.37448l0.96374,-11.48787c0,0 31.55955,-4.05652 38.77002,-4.98332c2.78976,-0.35859 5.80372,-0.74598 5.80372,-0.74598l-0.96374,11.48787z" fill="#69696a" stroke="none" stroke-width="0"/><path d="M300.01842,327.02604l1.60884,-79.09612c0,0 -0.67494,-0.67343 181.1589,-4.83272c16.14123,-0.36922 6.30827,73.12634 6.30827,73.12634z" fill="#d1d2d3" stroke="none" stroke-width="0"/><path d="M432.94439,396.59847l2.24489,-110.36667l54.57864,-3.11825l-2.24489,110.36667z" fill="#d1d2d3" stroke="none" stroke-width="0"/><path d="M380.4253,262.03446l-1.23016,-15.68497l71.57681,-2.62082l1.23016,15.68498z" fill="#d1d2d3" stroke="#858585" stroke-width="2"/></g></g></svg>