<svg version="1.1" xmlns="http://www.w3.org/2000/svg" xmlns:xlink="http://www.w3.org/1999/xlink" width="129.32336" height="154.36909" viewBox="0,0,129.32336,154.36909"><g transform="translate(-183.34144,-136.38092)"><g data-paper-data="{&quot;isPaintingLayer&quot;:true}" fill="#000000" fill-rule="nonzero" stroke="none" stroke-width="0" stroke-linecap="butt" stroke-linejoin="miter" stroke-miterlimit="10" stroke-dasharray="" stroke-dashoffset="0" style="mix-blend-mode: normal"><path d="M311.0291,278.50001c0,6.76549 -28.58386,12.25 -63.84383,12.25c-35.25997,0 -63.84383,-5.48451 -63.84383,-12.25c0,-6.76549 28.58386,-12.25 63.84383,-12.25c35.25997,0 63.84383,5.48451 63.84383,12.25z"/><path d="M184.80729,182.94923c0,-11.16901 9.05427,-20.22328 20.22328,-20.22328c11.16901,0 20.22328,9.05427 20.22328,20.22328c0,11.16901 -9.05427,20.22328 -20.22328,20.22328c-11.16901,0 -20.22328,-9.05427 -20.22328,-20.22328z"/><path d="M215.08639,182.05077c0,-11.16901 9.05427,-20.22329 20.22329,-20.22329c11.16901,0 20.22328,9.05427 20.22328,20.22329c0,11.16901 -9.05427,20.22329 -20.22328,20.22329c-11.16901,0 -20.22329,-9.05427 -20.22329,-20.22329z"/><path d="M204.07629,167.67012c0,-11.16901 9.05428,-20.22329 20.22329,-20.22329c11.16901,0 20.22329,9.05427 20.22329,20.22329c0,11.16901 -9.05428,20.22329 -20.22329,20.22329c-11.16901,0 -20.22329,-9.05427 -20.22329,-20.22329z"/><path d="M210.87321,198.06087c0,-11.16901 9.05427,-20.22329 20.22329,-20.22329c11.16901,0 20.22328,9.05427 20.22328,20.22329c0,11.16901 -9.05427,20.22329 -20.22328,20.22329c-11.16901,0 -20.22329,-9.05427 -20.22329,-20.22329z"/><path d="M241.15231,197.16241c0,-11.16901 9.05428,-20.22329 20.22328,-20.22329c11.16901,0 20.22328,9.05427 20.22328,20.22329c0,11.16901 -9.05427,20.22329 -20.22328,20.22329c-11.16901,0 -20.22328,-9.05427 -20.22328,-20.22329z"/><path d="M230.14221,182.78177c0,-11.16901 9.05427,-20.22329 20.22329,-20.22329c11.16901,0 20.22329,9.05428 20.22329,20.22329c0,11.16901 -9.05427,20.22328 -20.22329,20.22328c-11.16901,0 -20.22329,-9.05427 -20.22329,-20.22328z"/><path d="M218.40112,171.88331c0,-11.16901 9.05427,-20.22329 20.22328,-20.22329c11.16901,0 20.22329,9.05428 20.22329,20.22329c0,11.16901 -9.05428,20.22329 -20.22329,20.22329c-11.16901,0 -20.22328,-9.05428 -20.22328,-20.22329z"/><path d="M248.68022,170.98485c0,-11.16901 9.05427,-20.22329 20.22328,-20.22329c11.16901,0 20.22329,9.05428 20.22329,20.22329c0,11.16901 -9.05428,20.22329 -20.22329,20.22329c-11.16901,0 -20.22328,-9.05428 -20.22328,-20.22329z"/><path d="M237.67012,156.6042c0,-11.16901 9.05427,-20.22329 20.22329,-20.22329c11.16901,0 20.22328,9.05427 20.22328,20.22329c0,11.16901 -9.05427,20.22329 -20.22328,20.22329c-11.16901,0 -20.22329,-9.05427 -20.22329,-20.22329z"/><path d="M241.93913,193.73604c0,-11.16901 9.05428,-20.22329 20.22329,-20.22329c11.16901,0 20.22329,9.05427 20.22329,20.22329c0,11.16901 -9.05428,20.22329 -20.22329,20.22329c-11.16901,0 -20.22329,-9.05427 -20.22329,-20.22329z"/><path d="M272.21823,192.83758c0,-11.16901 9.05428,-20.22329 20.22329,-20.22329c11.16901,0 20.22329,9.05427 20.22329,20.22329c0,11.16901 -9.05428,20.22329 -20.22329,20.22329c-11.16901,0 -20.22329,-9.05427 -20.22329,-20.22329z"/><path d="M261.20813,166.66002c0,-11.16901 9.05427,-20.22329 20.22328,-20.22329c11.16901,0 20.22329,9.05427 20.22329,20.22329c0,11.16901 -9.05428,20.22329 -20.22329,20.22329c-11.16901,0 -20.22328,-9.05427 -20.22328,-20.22329z"/></g></g></svg>