<svg version="1.1" xmlns="http://www.w3.org/2000/svg" xmlns:xlink="http://www.w3.org/1999/xlink" width="265.39407" height="633.64083" viewBox="0,0,265.39407,633.64083"><defs><linearGradient x1="446.64741" y1="249.57685" x2="410.78464" y2="249.57685" gradientUnits="userSpaceOnUse" id="color-1"><stop offset="0" stop-color="#d1d2d3"/><stop offset="1" stop-color="#a4a5a8"/></linearGradient><linearGradient x1="447.28852" y1="208.71995" x2="411.42575" y2="208.71995" gradientUnits="userSpaceOnUse" id="color-2"><stop offset="0" stop-color="#d1d2d3"/><stop offset="1" stop-color="#a4a5a8"/></linearGradient><linearGradient x1="450.0091" y1="176.48939" x2="414.14633" y2="176.48939" gradientUnits="userSpaceOnUse" id="color-3"><stop offset="0" stop-color="#d1d2d3"/><stop offset="1" stop-color="#a4a5a8"/></linearGradient><linearGradient x1="453.48949" y1="141.9794" x2="417.62672" y2="141.9794" gradientUnits="userSpaceOnUse" id="color-4"><stop offset="0" stop-color="#d1d2d3"/><stop offset="1" stop-color="#a4a5a8"/></linearGradient><linearGradient x1="453.93065" y1="109.74885" x2="418.06788" y2="109.74885" gradientUnits="userSpaceOnUse" id="color-5"><stop offset="0" stop-color="#d1d2d3"/><stop offset="1" stop-color="#a4a5a8"/></linearGradient><linearGradient x1="456.65122" y1="75.23886" x2="420.78845" y2="75.23886" gradientUnits="userSpaceOnUse" id="color-6"><stop offset="0" stop-color="#d1d2d3"/><stop offset="1" stop-color="#a4a5a8"/></linearGradient><linearGradient x1="457.85219" y1="40.72888" x2="421.98942" y2="40.72888" gradientUnits="userSpaceOnUse" id="color-7"><stop offset="0" stop-color="#d1d2d3"/><stop offset="1" stop-color="#a4a5a8"/></linearGradient><linearGradient x1="458.29335" y1="10.77773" x2="422.43058" y2="10.77773" gradientUnits="userSpaceOnUse" id="color-8"><stop offset="0" stop-color="#d1d2d3"/><stop offset="1" stop-color="#a4a5a8"/></linearGradient><linearGradient x1="444.33529" y1="285.79095" x2="408.47252" y2="285.79095" gradientUnits="userSpaceOnUse" id="color-9"><stop offset="0" stop-color="#d1d2d3"/><stop offset="1" stop-color="#a4a5a8"/></linearGradient><linearGradient x1="460.43215" y1="-21.8878" x2="424.56938" y2="-21.8878" gradientUnits="userSpaceOnUse" id="color-10"><stop offset="0" stop-color="#d1d2d3"/><stop offset="1" stop-color="#a4a5a8"/></linearGradient><linearGradient x1="463.15272" y1="-56.39778" x2="427.28995" y2="-56.39778" gradientUnits="userSpaceOnUse" id="color-11"><stop offset="0" stop-color="#d1d2d3"/><stop offset="1" stop-color="#a4a5a8"/></linearGradient><linearGradient x1="464.35369" y1="-87.90476" x2="428.49092" y2="-87.90476" gradientUnits="userSpaceOnUse" id="color-12"><stop offset="0" stop-color="#d1d2d3"/><stop offset="1" stop-color="#a4a5a8"/></linearGradient><linearGradient x1="466.93365" y1="-117.96888" x2="431.07088" y2="-117.96888" gradientUnits="userSpaceOnUse" id="color-13"><stop offset="0" stop-color="#d1d2d3"/><stop offset="1" stop-color="#a4a5a8"/></linearGradient><linearGradient x1="469.65422" y1="-152.47887" x2="433.79145" y2="-152.47887" gradientUnits="userSpaceOnUse" id="color-14"><stop offset="0" stop-color="#d1d2d3"/><stop offset="1" stop-color="#a4a5a8"/></linearGradient><linearGradient x1="470.85519" y1="-186.98885" x2="434.99242" y2="-186.98885" gradientUnits="userSpaceOnUse" id="color-15"><stop offset="0" stop-color="#d1d2d3"/><stop offset="1" stop-color="#a4a5a8"/></linearGradient><linearGradient x1="471.29635" y1="-216.93997" x2="435.43358" y2="-216.93997" gradientUnits="userSpaceOnUse" id="color-16"><stop offset="0" stop-color="#d1d2d3"/><stop offset="1" stop-color="#a4a5a8"/></linearGradient></defs><g transform="translate(-235.68751,227.13231)"><g data-paper-data="{&quot;isPaintingLayer&quot;:true}" fill-rule="nonzero" stroke-linecap="butt" stroke-linejoin="miter" stroke-miterlimit="10" stroke-dasharray="" stroke-dashoffset="0" style="mix-blend-mode: normal"><path d="M381.01466,269.08749l-14.57784,5.91761l-20.25422,-68.32946l14.57785,-5.91761z" fill="#d1d2d3" stroke="#858585" stroke-width="2"/><path d="M412.99669,239.38452h31.43943c1.21895,0 2.21124,0.99188 2.21124,2.21123v15.96151c0,1.21941 -0.99229,2.21123 -2.21124,2.21123h-31.43943c-17.47492,-1.89986 -19.20517,-7.85255 -19.20517,-8.01644c0,0 -4.39158,-11.41758 19.20517,-12.36754z" data-paper-data="{&quot;index&quot;:null}" fill="url(#color-1)" stroke="none" stroke-width="1"/><path d="M413.6378,198.52762h31.43943c1.21895,0 2.21124,0.99188 2.21124,2.21123v15.96151c0,1.21941 -0.99229,2.21123 -2.21124,2.21123h-31.43943c-17.47492,-1.89986 -19.20517,-7.85255 -19.20517,-8.01644c0,0 -4.39158,-11.41758 19.20517,-12.36754z" data-paper-data="{&quot;index&quot;:null}" fill="url(#color-2)" stroke="none" stroke-width="1"/><path d="M416.35838,166.29706h31.43943c1.21895,0 2.21124,0.99188 2.21124,2.21123v15.96151c0,1.21941 -0.99229,2.21123 -2.21124,2.21123h-31.43943c-17.47492,-1.89986 -19.20517,-7.85255 -19.20517,-8.01644c0,0 -4.39158,-11.41758 19.20517,-12.36754z" data-paper-data="{&quot;index&quot;:null}" fill="url(#color-3)" stroke="none" stroke-width="1"/><path d="M419.83877,131.78708h31.43943c1.21895,0 2.21124,0.99188 2.21124,2.21123v15.96151c0,1.21941 -0.99229,2.21123 -2.21124,2.21123h-31.43943c-17.47492,-1.89986 -19.20517,-7.85255 -19.20517,-8.01644c0,0 -4.39158,-11.41758 19.20517,-12.36754z" data-paper-data="{&quot;index&quot;:null}" fill="url(#color-4)" stroke="none" stroke-width="1"/><path d="M420.27993,99.55651h31.43943c1.21895,0 2.21124,0.99188 2.21124,2.21123v15.96151c0,1.21941 -0.99229,2.21123 -2.21124,2.21123h-31.43943c-17.47492,-1.89986 -19.20517,-7.85255 -19.20517,-8.01644c0,0 -4.39158,-11.41758 19.20517,-12.36754z" data-paper-data="{&quot;index&quot;:null}" fill="url(#color-5)" stroke="none" stroke-width="1"/><path d="M423.0005,65.04654h31.43943c1.21895,0 2.21124,0.99188 2.21124,2.21123v15.96151c0,1.21941 -0.99229,2.21123 -2.21124,2.21123h-31.43943c-17.47492,-1.89986 -19.20517,-7.85255 -19.20517,-8.01644c0,0 -4.39158,-11.41758 19.20517,-12.36754z" data-paper-data="{&quot;index&quot;:null}" fill="url(#color-6)" stroke="none" stroke-width="1"/><path d="M424.20147,30.53654h31.43943c1.21895,0 2.21124,0.99188 2.21124,2.21123v15.96151c0,1.21941 -0.99229,2.21123 -2.21124,2.21123h-31.43943c-17.47492,-1.89986 -19.20517,-7.85255 -19.20517,-8.01644c0,0 -4.39158,-11.41758 19.20517,-12.36754z" data-paper-data="{&quot;index&quot;:null}" fill="url(#color-7)" stroke="none" stroke-width="1"/><path d="M424.64263,0.5854h31.43943c1.21895,0 2.21124,0.99188 2.21124,2.21123v15.96151c0,1.21941 -0.99229,2.21123 -2.21124,2.21123h-31.43943c-17.47492,-1.89986 -19.20517,-7.85255 -19.20517,-8.01644c0,0 -4.39158,-11.41758 19.20517,-12.36754z" data-paper-data="{&quot;index&quot;:null}" fill="url(#color-8)" stroke="none" stroke-width="1"/><path d="M438.35807,318.16577c-12.43202,2.15756 -21.89424,32.87736 -21.52755,32.86469c0.3667,-0.01268 -3.92509,-29.33885 6.22029,-38.75894c11.22954,-10.42673 52.26691,-29.33986 51.90022,-29.32716c-0.3667,0.01268 -23.64705,32.97467 -36.59297,35.22143z" fill="#3c3c3c" stroke="#3a3a3a" stroke-width="5"/><path d="M449.44906,332.4653c-0.71767,16.75039 -14.84028,30.79786 -31.54378,31.37586c-16.70349,0.578 -29.66256,-12.53231 -28.9449,-29.28271c0.71767,-16.75039 14.87967,-31.71693 31.58316,-32.29494c7.80525,-0.27008 29.10567,25.53051 28.90553,30.20178z" fill="none" stroke="#3a3a3a" stroke-width="20"/><path d="M309.01479,260.23751l0.5119,-11.94791c0,0 27.63084,-0.95614 33.94371,-1.1746c2.44249,-0.08451 5.08124,-0.17583 5.08124,-0.17583l-0.5119,11.94791z" fill="#8d8e8f" stroke="none" stroke-width="0"/><path d="M463.18196,269.07917l-2.07987,-11.29487c0,0 26.83407,-12.76712 32.96489,-15.68406c2.37205,-1.12858 4.93473,-2.34784 4.93473,-2.34784l2.07987,11.29487z" fill="#69696a" stroke="none" stroke-width="0"/><path d="M410.68457,275.5986h31.43943c1.21895,0 2.21124,0.99188 2.21124,2.21124v15.96151c0,1.21941 -0.99229,2.21124 -2.21124,2.21124h-31.43943c-17.47491,-1.89986 -19.20517,-7.85255 -19.20517,-8.01644c0,0 -4.39158,-11.41758 19.20517,-12.36754z" data-paper-data="{&quot;index&quot;:null}" fill="url(#color-9)" stroke="none" stroke-width="1"/><path d="M300.01088,333.96566l3.38641,-79.03997l80.56136,-1.73589l-0.58553,16.84431l78.0237,-2.16184l0.22278,-13.36097c0,0 16.15178,-0.34222 22.99945,-0.34488c16.14545,-0.00629 4.66288,73.24966 4.66288,73.24966z" fill="#d1d2d3" stroke="none" stroke-width="0"/><path d="M431.33935,406.50852l4.72523,-110.28832l54.63494,-1.8906l-4.72523,110.28832z" fill="#d1d2d3" stroke="none" stroke-width="0"/><path d="M235.68751,181.56252v-3.25h8.875v3.25z" fill="none" stroke="none" stroke-width="0"/><path d="M426.78143,-32.08013h31.43943c1.21895,0 2.21124,0.99188 2.21124,2.21123v15.96151c0,1.21941 -0.99229,2.21123 -2.21124,2.21123h-31.43943c-17.47492,-1.89986 -19.20517,-7.85255 -19.20517,-8.01644c0,0 -4.39158,-11.41758 19.20517,-12.36754z" data-paper-data="{&quot;index&quot;:null}" fill="url(#color-10)" stroke="none" stroke-width="1"/><path d="M429.502,-66.5901h31.43943c1.21895,0 2.21124,0.99188 2.21124,2.21123v15.96151c0,1.21941 -0.99229,2.21123 -2.21124,2.21123h-31.43943c-17.47492,-1.89986 -19.20517,-7.85255 -19.20517,-8.01644c0,0 -4.39158,-11.41758 19.20517,-12.36754z" data-paper-data="{&quot;index&quot;:null}" fill="url(#color-11)" stroke="none" stroke-width="1"/><path d="M430.70297,-98.09708h31.43943c1.21895,0 2.21124,0.99188 2.21124,2.21123v15.96151c0,1.21941 -0.99229,2.21123 -2.21124,2.21123h-31.43943c-17.47492,-1.89986 -19.20517,-7.85255 -19.20517,-8.01644c0,0 -4.39158,-11.41758 19.20517,-12.36754z" data-paper-data="{&quot;index&quot;:null}" fill="url(#color-12)" stroke="none" stroke-width="1"/><path d="M433.28293,-128.16121h31.43943c1.21895,0 2.21124,0.99188 2.21124,2.21123v15.96151c0,1.21941 -0.99229,2.21123 -2.21124,2.21123h-31.43943c-17.47492,-1.89986 -19.20517,-7.85255 -19.20517,-8.01644c0,0 -4.39158,-11.41758 19.20517,-12.36754z" data-paper-data="{&quot;index&quot;:null}" fill="url(#color-13)" stroke="none" stroke-width="1"/><path d="M436.0035,-162.6712h31.43943c1.21895,0 2.21124,0.99188 2.21124,2.21123v15.96151c0,1.21941 -0.99229,2.21123 -2.21124,2.21123h-31.43943c-17.47492,-1.89986 -19.20517,-7.85255 -19.20517,-8.01644c0,0 -4.39158,-11.41758 19.20517,-12.36754z" data-paper-data="{&quot;index&quot;:null}" fill="url(#color-14)" stroke="none" stroke-width="1"/><path d="M437.20447,-197.18118h31.43943c1.21895,0 2.21124,0.99188 2.21124,2.21123v15.96151c0,1.21941 -0.99229,2.21123 -2.21124,2.21123h-31.43943c-17.47492,-1.89986 -19.20517,-7.85255 -19.20517,-8.01644c0,0 -4.39158,-11.41758 19.20517,-12.36754z" data-paper-data="{&quot;index&quot;:null}" fill="url(#color-15)" stroke="none" stroke-width="1"/><path d="M437.64563,-227.1323h31.43943c1.21895,0 2.21124,0.99188 2.21124,2.21123v15.96151c0,1.21941 -0.99229,2.21123 -2.21124,2.21123h-31.43943c-17.47492,-1.89986 -19.20517,-7.85255 -19.20517,-8.01644c0,0 -4.39158,-11.41758 19.20517,-12.36754z" data-paper-data="{&quot;index&quot;:null}" fill="url(#color-16)" stroke="none" stroke-width="1"/></g></g></svg>